#N canvas 383 121 1060 353 12;
#X obj 12 14 cnv 15 1030 309 empty empty empty 20 12 0 14 #000000 #404040
0;
#X obj 25 30 singleSampler1;
#X obj 361 30 singleSampler2;
#X obj 698 30 singleSampler3;
#N canvas 942 551 450 300 EgoSands 0;
#X msg 122 -176 5;
#X obj 122 -200 loadbang;
#X obj 121 -124 loadbang;
#X obj 121 -73 s giveMeSample1;
#X obj 121 -44 loadbang;
#X obj 121 7 s giveMeSample2;
#X obj 121 33 loadbang;
#X obj 121 84 s giveMeSample3;
#X msg 121 -98 open openDguit.wav;
#X msg 121 -18 open auroraSynth.wav;
#X msg 121 59 open houseBass.wav;
#X obj 122 -151 s silence1;
#X obj 212 -151 s silence2;
#X obj 301 -151 s silence3;
#X connect 0 0 11 0;
#X connect 0 0 12 0;
#X connect 0 0 13 0;
#X connect 1 0 0 0;
#X connect 2 0 8 0;
#X connect 4 0 9 0;
#X connect 6 0 10 0;
#X connect 8 0 3 0;
#X connect 9 0 5 0;
#X connect 10 0 7 0;
#X restore 961 324 pd EgoSands;
#N canvas 372 270 1093 508 theMidi 0;
#X obj 932 98 notein;
#X floatatom 932 164 5 0 0 0 - - -, f 5;
#X floatatom 951 143 5 0 0 0 - - -, f 5;
#X floatatom 971 122 5 0 0 0 - - -, f 5;
#X obj 932 200 ctlin;
#X floatatom 932 264 5 0 0 0 - - -, f 5;
#X floatatom 948 243 5 0 0 0 - - -, f 5;
#X floatatom 962 222 5 0 0 0 - - -, f 5;
#X text 30 10 MIDI Sand 1;
#X obj 30 50 ctlin 21 9;
#X obj 30 79 / 127;
#X obj 30 179 / 127;
#X obj 30 150 ctlin 22 9, f 11;
#X obj 30 269 / 127;
#X obj 30 240 ctlin 42 9;
#X obj 30 108 s sandStart1;
#X obj 30 298 s sandVol1;
#X obj 30 208 s sandEnd1;
#X obj 350 79 / 127;
#X obj 350 179 / 127;
#X obj 350 269 / 127;
#X obj 640 79 / 127;
#X obj 640 179 / 127;
#X obj 640 269 / 127;
#X text 350 10 MIDI Sand 2;
#X obj 350 108 s sandStart2;
#X obj 350 208 s sandEnd2;
#X obj 350 298 s sandVol2;
#X text 640 10 MIDI Sand 3;
#X obj 640 108 s sandStart3;
#X obj 640 208 s sandEnd3;
#X obj 640 298 s sandVol3;
#X obj 350 50 ctlin 23 9;
#X obj 350 150 ctlin 24 9, f 11;
#X obj 640 50 ctlin 25 9;
#X obj 640 150 ctlin 26 9, f 11;
#X obj 350 240 ctlin 44 9;
#X obj 640 240 ctlin 46 9;
#X obj 142 181 notein 9;
#X obj 142 210 stripnote;
#X obj 142 239 sel 10;
#X obj 142 313 s silence1;
#X obj 142 288 counter 3;
#X obj 157 263 loadbang;
#X obj 142 50 notein 9;
#X obj 142 74 stripnote;
#X obj 142 98 sel 9;
#X msg 142 121 5;
#X obj 142 145 s silence1;
#X obj 453 180 notein 9;
#X obj 453 209 stripnote;
#X obj 453 287 counter 3;
#X obj 468 262 loadbang;
#X obj 453 49 notein 9;
#X obj 453 73 stripnote;
#X msg 453 120 5;
#X obj 453 97 sel 11;
#X obj 453 238 sel 12;
#X obj 453 144 s silence2;
#X obj 453 312 s silence2;
#X obj 743 180 notein 9;
#X obj 743 209 stripnote;
#X obj 743 287 counter 3;
#X obj 758 262 loadbang;
#X obj 743 49 notein 9;
#X obj 743 73 stripnote;
#X msg 743 120 5;
#X obj 743 144 s silence3;
#X obj 743 312 s silence3;
#X obj 743 97 sel 25;
#X obj 743 238 sel 26;
#X text 910 40 notes and control;
#X text 910 60 messages monitoring;
#X text 380 400 These mappings are for the factory preset 1;
#X text 380 420 of the Novation LaunchControl \, If u have one;
#X text 380 440 you should be able to connect and be good to go;
#X connect 0 0 1 0;
#X connect 0 1 2 0;
#X connect 0 2 3 0;
#X connect 4 0 5 0;
#X connect 4 1 6 0;
#X connect 4 2 7 0;
#X connect 9 0 10 0;
#X connect 10 0 15 0;
#X connect 11 0 17 0;
#X connect 12 0 11 0;
#X connect 13 0 16 0;
#X connect 14 0 13 0;
#X connect 18 0 25 0;
#X connect 19 0 26 0;
#X connect 20 0 27 0;
#X connect 21 0 29 0;
#X connect 22 0 30 0;
#X connect 23 0 31 0;
#X connect 32 0 18 0;
#X connect 33 0 19 0;
#X connect 34 0 21 0;
#X connect 35 0 22 0;
#X connect 36 0 20 0;
#X connect 37 0 23 0;
#X connect 38 0 39 0;
#X connect 38 1 39 1;
#X connect 39 0 40 0;
#X connect 40 0 42 0;
#X connect 42 0 41 0;
#X connect 43 0 42 1;
#X connect 44 0 45 0;
#X connect 44 1 45 1;
#X connect 45 0 46 0;
#X connect 46 0 47 0;
#X connect 47 0 48 0;
#X connect 49 0 50 0;
#X connect 49 1 50 1;
#X connect 50 0 57 0;
#X connect 51 0 59 0;
#X connect 52 0 51 1;
#X connect 53 0 54 0;
#X connect 53 1 54 1;
#X connect 54 0 56 0;
#X connect 55 0 58 0;
#X connect 56 0 55 0;
#X connect 57 0 51 0;
#X connect 60 0 61 0;
#X connect 60 1 61 1;
#X connect 61 0 70 0;
#X connect 62 0 68 0;
#X connect 63 0 62 1;
#X connect 64 0 65 0;
#X connect 64 1 65 1;
#X connect 65 0 69 0;
#X connect 66 0 67 0;
#X connect 69 0 66 0;
#X connect 70 0 62 0;
#X restore 887 324 pd theMidi;
